<mxfile host="app.diagrams.net" agent="Mozilla/5.0 (Windows NT 10.0; Win64; x64) AppleWebKit/537.36 (KHTML, like Gecko) Chrome/129.0.0.0 Safari/537.36" version="24.7.17">
  <diagram name="Sayfa -1" id="0UxMN9VjifZbepmunoUK">
    <mxGraphModel dx="1854" dy="1086" grid="1" gridSize="10" guides="1" tooltips="1" connect="1" arrows="1" fold="1" page="1" pageScale="1" pageWidth="827" pageHeight="1169" math="0" shadow="0">
      <root>
        <mxCell id="0" />
        <mxCell id="1" parent="0" />
        <mxCell id="FrzPlz2sBrY9fomMDrdM-5" style="edgeStyle=orthogonalEdgeStyle;rounded=0;orthogonalLoop=1;jettySize=auto;html=1;exitX=0.5;exitY=1;exitDx=0;exitDy=0;entryX=0.5;entryY=0;entryDx=0;entryDy=0;" edge="1" parent="1" source="FrzPlz2sBrY9fomMDrdM-1" target="FrzPlz2sBrY9fomMDrdM-4">
          <mxGeometry relative="1" as="geometry" />
        </mxCell>
        <mxCell id="FrzPlz2sBrY9fomMDrdM-1" value="Start" style="rounded=1;whiteSpace=wrap;html=1;" vertex="1" parent="1">
          <mxGeometry x="320" y="80" width="120" height="60" as="geometry" />
        </mxCell>
        <mxCell id="FrzPlz2sBrY9fomMDrdM-2" value="End" style="rounded=1;whiteSpace=wrap;html=1;" vertex="1" parent="1">
          <mxGeometry x="320" y="970" width="120" height="80" as="geometry" />
        </mxCell>
        <mxCell id="FrzPlz2sBrY9fomMDrdM-6" value="True" style="edgeStyle=orthogonalEdgeStyle;rounded=0;orthogonalLoop=1;jettySize=auto;html=1;exitX=1;exitY=0.5;exitDx=0;exitDy=0;" edge="1" parent="1" source="FrzPlz2sBrY9fomMDrdM-4" target="FrzPlz2sBrY9fomMDrdM-7">
          <mxGeometry relative="1" as="geometry">
            <mxPoint x="560" y="310" as="targetPoint" />
          </mxGeometry>
        </mxCell>
        <mxCell id="FrzPlz2sBrY9fomMDrdM-10" style="edgeStyle=orthogonalEdgeStyle;rounded=0;orthogonalLoop=1;jettySize=auto;html=1;exitX=0.5;exitY=1;exitDx=0;exitDy=0;entryX=0.5;entryY=0;entryDx=0;entryDy=0;" edge="1" parent="1" source="FrzPlz2sBrY9fomMDrdM-4" target="FrzPlz2sBrY9fomMDrdM-9">
          <mxGeometry relative="1" as="geometry" />
        </mxCell>
        <mxCell id="FrzPlz2sBrY9fomMDrdM-11" value="False" style="edgeLabel;html=1;align=center;verticalAlign=middle;resizable=0;points=[];" vertex="1" connectable="0" parent="FrzPlz2sBrY9fomMDrdM-10">
          <mxGeometry x="-0.2167" y="2" relative="1" as="geometry">
            <mxPoint as="offset" />
          </mxGeometry>
        </mxCell>
        <mxCell id="FrzPlz2sBrY9fomMDrdM-4" value="n % i == 0" style="rhombus;whiteSpace=wrap;html=1;" vertex="1" parent="1">
          <mxGeometry x="320" y="210" width="120" height="120" as="geometry" />
        </mxCell>
        <mxCell id="FrzPlz2sBrY9fomMDrdM-27" style="edgeStyle=orthogonalEdgeStyle;rounded=0;orthogonalLoop=1;jettySize=auto;html=1;exitX=0.5;exitY=1;exitDx=0;exitDy=0;entryX=1;entryY=0.75;entryDx=0;entryDy=0;" edge="1" parent="1" source="FrzPlz2sBrY9fomMDrdM-7" target="FrzPlz2sBrY9fomMDrdM-2">
          <mxGeometry relative="1" as="geometry" />
        </mxCell>
        <mxCell id="FrzPlz2sBrY9fomMDrdM-7" value="count++" style="rounded=0;whiteSpace=wrap;html=1;" vertex="1" parent="1">
          <mxGeometry x="600" y="240" width="120" height="60" as="geometry" />
        </mxCell>
        <mxCell id="FrzPlz2sBrY9fomMDrdM-17" style="edgeStyle=orthogonalEdgeStyle;rounded=0;orthogonalLoop=1;jettySize=auto;html=1;exitX=1;exitY=0.5;exitDx=0;exitDy=0;entryX=0;entryY=0.5;entryDx=0;entryDy=0;" edge="1" parent="1" source="FrzPlz2sBrY9fomMDrdM-9" target="FrzPlz2sBrY9fomMDrdM-12">
          <mxGeometry relative="1" as="geometry" />
        </mxCell>
        <mxCell id="FrzPlz2sBrY9fomMDrdM-18" value="True" style="edgeLabel;html=1;align=center;verticalAlign=middle;resizable=0;points=[];" vertex="1" connectable="0" parent="FrzPlz2sBrY9fomMDrdM-17">
          <mxGeometry x="-0.0852" y="-2" relative="1" as="geometry">
            <mxPoint x="1" as="offset" />
          </mxGeometry>
        </mxCell>
        <mxCell id="FrzPlz2sBrY9fomMDrdM-20" style="edgeStyle=orthogonalEdgeStyle;rounded=0;orthogonalLoop=1;jettySize=auto;html=1;exitX=0.5;exitY=1;exitDx=0;exitDy=0;entryX=0.5;entryY=0;entryDx=0;entryDy=0;" edge="1" parent="1" source="FrzPlz2sBrY9fomMDrdM-9" target="FrzPlz2sBrY9fomMDrdM-19">
          <mxGeometry relative="1" as="geometry" />
        </mxCell>
        <mxCell id="FrzPlz2sBrY9fomMDrdM-22" value="False" style="edgeLabel;html=1;align=center;verticalAlign=middle;resizable=0;points=[];" vertex="1" connectable="0" parent="FrzPlz2sBrY9fomMDrdM-20">
          <mxGeometry x="-0.0635" y="-1" relative="1" as="geometry">
            <mxPoint y="-1" as="offset" />
          </mxGeometry>
        </mxCell>
        <mxCell id="FrzPlz2sBrY9fomMDrdM-9" value="count&amp;gt;2" style="rhombus;whiteSpace=wrap;html=1;" vertex="1" parent="1">
          <mxGeometry x="320" y="410" width="120" height="120" as="geometry" />
        </mxCell>
        <mxCell id="FrzPlz2sBrY9fomMDrdM-16" style="edgeStyle=orthogonalEdgeStyle;rounded=0;orthogonalLoop=1;jettySize=auto;html=1;exitX=0.5;exitY=1;exitDx=0;exitDy=0;entryX=1;entryY=0.5;entryDx=0;entryDy=0;" edge="1" parent="1" source="FrzPlz2sBrY9fomMDrdM-12" target="FrzPlz2sBrY9fomMDrdM-2">
          <mxGeometry relative="1" as="geometry">
            <mxPoint x="559.6666666666667" y="770" as="targetPoint" />
          </mxGeometry>
        </mxCell>
        <mxCell id="FrzPlz2sBrY9fomMDrdM-12" value="Cw Murekkeb" style="rounded=0;whiteSpace=wrap;html=1;" vertex="1" parent="1">
          <mxGeometry x="500" y="440" width="120" height="60" as="geometry" />
        </mxCell>
        <mxCell id="FrzPlz2sBrY9fomMDrdM-21" style="edgeStyle=orthogonalEdgeStyle;rounded=0;orthogonalLoop=1;jettySize=auto;html=1;exitX=0.5;exitY=1;exitDx=0;exitDy=0;entryX=0.5;entryY=0;entryDx=0;entryDy=0;" edge="1" parent="1" source="FrzPlz2sBrY9fomMDrdM-28" target="FrzPlz2sBrY9fomMDrdM-2">
          <mxGeometry relative="1" as="geometry" />
        </mxCell>
        <mxCell id="FrzPlz2sBrY9fomMDrdM-24" style="edgeStyle=orthogonalEdgeStyle;rounded=0;orthogonalLoop=1;jettySize=auto;html=1;exitX=0;exitY=0.5;exitDx=0;exitDy=0;entryX=1;entryY=0.5;entryDx=0;entryDy=0;" edge="1" parent="1" source="FrzPlz2sBrY9fomMDrdM-19" target="FrzPlz2sBrY9fomMDrdM-23">
          <mxGeometry relative="1" as="geometry" />
        </mxCell>
        <mxCell id="FrzPlz2sBrY9fomMDrdM-25" value="True" style="edgeLabel;html=1;align=center;verticalAlign=middle;resizable=0;points=[];" vertex="1" connectable="0" parent="FrzPlz2sBrY9fomMDrdM-24">
          <mxGeometry x="0.0017" y="3" relative="1" as="geometry">
            <mxPoint x="1" as="offset" />
          </mxGeometry>
        </mxCell>
        <mxCell id="FrzPlz2sBrY9fomMDrdM-19" value="n == 0 || n == 1" style="rhombus;whiteSpace=wrap;html=1;" vertex="1" parent="1">
          <mxGeometry x="315" y="600" width="130" height="130" as="geometry" />
        </mxCell>
        <mxCell id="FrzPlz2sBrY9fomMDrdM-26" style="edgeStyle=orthogonalEdgeStyle;rounded=0;orthogonalLoop=1;jettySize=auto;html=1;exitX=0.5;exitY=1;exitDx=0;exitDy=0;entryX=0;entryY=0.75;entryDx=0;entryDy=0;" edge="1" parent="1" source="FrzPlz2sBrY9fomMDrdM-23" target="FrzPlz2sBrY9fomMDrdM-2">
          <mxGeometry relative="1" as="geometry" />
        </mxCell>
        <mxCell id="FrzPlz2sBrY9fomMDrdM-23" value="Cw 0 ve 1 olmaz" style="rounded=1;whiteSpace=wrap;html=1;" vertex="1" parent="1">
          <mxGeometry x="50" y="635" width="120" height="60" as="geometry" />
        </mxCell>
        <mxCell id="FrzPlz2sBrY9fomMDrdM-29" value="" style="edgeStyle=orthogonalEdgeStyle;rounded=0;orthogonalLoop=1;jettySize=auto;html=1;exitX=0.5;exitY=1;exitDx=0;exitDy=0;entryX=0.5;entryY=0;entryDx=0;entryDy=0;" edge="1" parent="1" source="FrzPlz2sBrY9fomMDrdM-19" target="FrzPlz2sBrY9fomMDrdM-28">
          <mxGeometry relative="1" as="geometry">
            <mxPoint x="380" y="730" as="sourcePoint" />
            <mxPoint x="380" y="970" as="targetPoint" />
          </mxGeometry>
        </mxCell>
        <mxCell id="FrzPlz2sBrY9fomMDrdM-30" value="False" style="edgeLabel;html=1;align=center;verticalAlign=middle;resizable=0;points=[];" vertex="1" connectable="0" parent="FrzPlz2sBrY9fomMDrdM-29">
          <mxGeometry x="-0.1651" y="1" relative="1" as="geometry">
            <mxPoint y="-1" as="offset" />
          </mxGeometry>
        </mxCell>
        <mxCell id="FrzPlz2sBrY9fomMDrdM-32" style="edgeStyle=orthogonalEdgeStyle;rounded=0;orthogonalLoop=1;jettySize=auto;html=1;exitX=0;exitY=0.5;exitDx=0;exitDy=0;entryX=1;entryY=0.5;entryDx=0;entryDy=0;" edge="1" parent="1" source="FrzPlz2sBrY9fomMDrdM-28" target="FrzPlz2sBrY9fomMDrdM-31">
          <mxGeometry relative="1" as="geometry" />
        </mxCell>
        <mxCell id="FrzPlz2sBrY9fomMDrdM-33" value="True" style="edgeLabel;html=1;align=center;verticalAlign=middle;resizable=0;points=[];" vertex="1" connectable="0" parent="FrzPlz2sBrY9fomMDrdM-32">
          <mxGeometry x="-0.08" y="2" relative="1" as="geometry">
            <mxPoint x="-1" as="offset" />
          </mxGeometry>
        </mxCell>
        <mxCell id="FrzPlz2sBrY9fomMDrdM-28" value="else" style="rhombus;whiteSpace=wrap;html=1;" vertex="1" parent="1">
          <mxGeometry x="320" y="800" width="120" height="110" as="geometry" />
        </mxCell>
        <mxCell id="FrzPlz2sBrY9fomMDrdM-34" style="edgeStyle=orthogonalEdgeStyle;rounded=0;orthogonalLoop=1;jettySize=auto;html=1;exitX=0.5;exitY=1;exitDx=0;exitDy=0;entryX=0;entryY=0.5;entryDx=0;entryDy=0;" edge="1" parent="1" source="FrzPlz2sBrY9fomMDrdM-31" target="FrzPlz2sBrY9fomMDrdM-2">
          <mxGeometry relative="1" as="geometry" />
        </mxCell>
        <mxCell id="FrzPlz2sBrY9fomMDrdM-31" value="Cw Sade" style="rounded=1;whiteSpace=wrap;html=1;" vertex="1" parent="1">
          <mxGeometry x="150" y="825" width="120" height="60" as="geometry" />
        </mxCell>
      </root>
    </mxGraphModel>
  </diagram>
</mxfile>
